<svg width="120" height="120" xmlns="http://www.w3.org/2000/svg" preserveAspectRatio="xMidYMid meet" version="1.0">

 <g>
  <title>Layer 1</title>
  <g stroke="null" id="svg_1" transform="rotate(0 65.892 59.3099) translate(-5 200) scale(0.1 -0.1)">
   <path fill="#fff" d="m94.33316,1694.57429c1.55481,-8.70537 10.88367,-15.03655 24.09955,-16.61935c19.43512,-2.37419 20.98993,-4.74839 20.98993,-41.15268c0,-36.40429 -1.55481,-38.77848 -20.98993,-41.15268c-20.98993,-2.37419 -21.76734,-3.95699 -24.09955,-59.35482l-2.33221,-57.77202l24.09955,0c17.88031,0 23.32215,-3.16559 23.32215,-15.82795c0,-12.66236 -5.44183,-15.82795 -23.32215,-15.82795l-24.09955,0l2.33221,-120.29243l2.33221,-121.08383l20.98993,-2.37419c19.43512,-2.37419 20.98993,-5.53978 23.32215,-47.48386c1.55481,-34.0301 5.44183,-45.10966 13.99329,-45.10966c6.99664,0 12.43848,8.70537 13.99329,20.57634c2.33221,21.36774 2.33221,21.36774 75.40827,22.15913l73.07606,1.5828l2.33221,-22.15913c2.33221,-21.36774 3.10962,-22.15913 59.08277,-24.53333l55.97315,-2.37419l0,24.53333c0,29.28171 13.99329,31.6559 17.10291,2.37419l2.33221,-22.15913l185.02236,-2.37419l184.24495,-1.5828l0,23.74193l0,23.74193l93.28858,0c115.05592,0 159.368,14.24516 221.56038,72.01718c59.08277,55.39783 83.95972,110.00427 87.06934,192.30962c1.55481,46.69246 -1.55481,75.18277 -10.88367,103.67309c-12.43848,34.82149 -17.10291,40.36128 -38.87024,43.52687c-17.88031,3.16559 -31.09619,13.45376 -47.4217,36.40429c-12.43848,17.41075 -39.64765,43.52687 -60.63758,56.98063c-70.74384,48.27525 -80.85011,49.06665 -451.67222,49.06665l-337.39371,0l-15.5481,-27.69892c-14.77069,-25.32472 -19.43512,-27.69892 -53.64094,-27.69892c-37.31543,0 -38.09284,0.7914 -40.42505,26.11612c-2.33221,24.53333 -3.88702,25.32472 -39.64765,27.69892c-32.651,2.37419 -37.31543,0.7914 -34.98322,-11.87096zm540.29638,-66.4774l33.42841,-46.69246l43.53467,0c41.97986,0 43.53467,-0.7914 32.651,-13.45376c-39.64765,-45.90106 -56.75055,-126.62362 -40.42505,-189.93542c42.75727,-167.77629 243.32772,-224.75692 363.04807,-102.09029c44.31208,44.31827 55.97315,78.34836 55.97315,159.07092c0,64.10321 -2.33221,74.39137 -20.98993,103.67309c-65.30201,102.88169 -177.24831,138.49458 -282.97537,90.21933c-24.87696,-11.07957 -52.08613,-15.82795 -87.84675,-15.82795c-51.30872,0 -51.30872,0.7914 -73.07606,31.6559l-21.76734,31.6559l165.58723,0l165.58723,0l46.64429,-22.15913c43.53467,-21.36774 92.51118,-66.4774 112.7237,-103.67309c5.44183,-11.07957 16.3255,-16.61935 31.09619,-16.61935c20.21253,0 24.09955,-3.95699 31.8736,-33.2387c4.66443,-18.99354 6.99664,-58.56342 5.44183,-89.42793c-6.21924,-91.80212 -50.53132,-159.86231 -132.15883,-201.80639l-47.4217,-23.74193l-138.37806,0l-138.37806,0l-31.8736,43.52687c-31.8736,43.52687 -31.8736,43.52687 -73.85346,43.52687l-42.75727,0l23.32215,36.40429c32.651,53.02364 43.53467,110.79566 31.8736,164.6107c-37.31543,170.15048 -230.11184,232.67089 -359.93845,116.33545c-76.96308,-68.85159 -89.40156,-215.26015 -24.09955,-293.60851l19.43512,-23.74193l-55.19574,0l-55.19574,0l0,174.10747l0,174.10747l41.97986,0c39.64765,0 44.31208,2.37419 63.7472,27.69892l20.21253,27.69892l153.14876,-0.7914l152.37135,0l32.651,-47.48386zm-196.68343,-31.6559c13.99329,-16.61935 20.21253,-33.2387 20.21253,-54.60643c0,-33.2387 -10.10626,-45.90106 -22.54474,-30.07311c-4.66443,5.53978 -17.88031,22.15913 -29.54138,37.19569c-11.66107,14.24516 -31.8736,30.86451 -45.08948,37.19569l-23.32215,9.49677l19.43512,7.91398c10.88367,3.95699 24.87696,9.49677 31.09619,11.87096c21.76734,7.91398 29.54138,5.53978 49.75391,-18.99354zm95.6208,-7.91398c24.87696,-21.36774 -4.66443,-114.75265 -34.98322,-108.42147c-10.88367,2.37419 -12.43848,9.49677 -10.88367,43.52687c2.33221,26.90752 -1.55481,50.64945 -9.32886,66.4774c-6.99664,14.24516 -12.43848,26.90752 -12.43848,28.49031c0,3.95699 55.97315,-20.57634 67.63422,-30.07311zm454.78184,15.82795c19.43512,-11.07957 19.43512,-77.55696 0,-102.09029c-20.21253,-25.32472 -30.31879,-15.82795 -34.20581,31.6559c-2.33221,24.53333 -10.88367,49.85805 -21.76734,64.8946l-17.88031,24.53333l30.31879,-6.33118c16.3255,-3.16559 36.53803,-8.70537 43.53467,-12.66236zm-101.84004,0.7914c28.76398,-15.82795 52.86353,-94.96771 28.76398,-94.96771c-5.44183,0 -21.76734,11.87096 -37.31543,26.90752c-14.77069,15.03655 -39.64765,30.86451 -54.41834,34.82149l-27.20917,7.12258l27.20917,16.61935c30.31879,19.78494 41.20246,21.36774 62.96979,9.49677zm193.57381,-98.9247c0,-32.4473 -48.97651,-75.18277 -85.51453,-75.18277c-12.43848,0 -9.32886,28.49031 4.66443,40.36128c18.65772,15.82795 34.20581,51.44084 34.20581,79.93116l0.7774,26.11612l22.54474,-27.69892c13.21588,-15.03655 23.32215,-34.82149 23.32215,-43.52687zm-940.65988,27.69892c0,-17.41075 -3.10962,-31.6559 -7.77405,-31.6559c-3.88702,0 -7.77405,14.24516 -7.77405,31.6559c0,17.41075 3.88702,31.6559 7.77405,31.6559c4.66443,0 7.77405,-14.24516 7.77405,-31.6559zm213.00893,20.57634c31.8736,-13.45376 54.41834,-42.73547 42.75727,-56.98063c-6.21924,-7.91398 -13.99329,-7.12258 -36.53803,2.37419c-26.43177,11.07957 -58.30536,10.28817 -90.17896,-2.37419c-13.21588,-4.74839 -13.21588,-3.95699 -4.66443,13.45376c13.99329,27.69892 39.64765,54.60643 52.08613,54.60643c6.21924,0 22.54474,-4.74839 36.53803,-11.07957zm246.43734,-37.19569c13.21588,-26.90752 14.77069,-36.40429 6.99664,-50.64945c-11.66107,-22.15913 -47.4217,-43.52687 -73.07606,-43.52687c-27.20917,0 -25.65436,15.82795 3.10962,43.52687c13.21588,12.66236 27.98657,36.40429 32.651,53.02364c4.66443,16.61935 10.10626,30.07311 10.88367,30.07311c1.55481,0 10.10626,-15.03655 19.43512,-32.4473zm247.99215,9.49677c10.88367,-7.91398 20.98993,-20.57634 22.54474,-28.49031c2.33221,-12.66236 -1.55481,-13.45376 -37.31543,-8.70537c-27.98657,3.95699 -47.4217,1.5828 -67.63422,-7.12258c-15.5481,-6.33118 -30.31879,-10.28817 -31.8736,-8.70537c-6.21924,6.33118 20.21253,58.56342 34.20581,67.2688c17.88031,11.07957 55.19574,4.74839 80.0727,-14.24516zm-499.09392,-53.02364c24.87696,-7.12258 18.65772,-28.49031 -11.66107,-36.40429c-13.99329,-3.95699 -36.53803,-20.57634 -51.30872,-37.98708c-29.54138,-34.82149 -36.53803,-31.6559 -36.53803,18.99354c0,45.10966 45.08948,69.64299 99.50782,55.39783zm115.05592,-15.03655c14.77069,-15.03655 17.88031,-24.53333 13.99329,-37.98708c-11.66107,-37.19569 -47.4217,-47.48386 -73.07606,-21.36774c-24.09955,24.53333 -16.3255,60.93762 15.5481,73.59998c19.43512,7.12258 23.32215,6.33118 43.53467,-14.24516zm477.32658,3.95699c41.20246,-41.94407 -12.43848,-106.04728 -55.97315,-65.686c-19.43512,18.20214 -17.88031,53.81504 3.10962,68.85159c23.32215,16.61935 34.20581,15.82795 52.86353,-3.16559zm-102.61744,-15.82795c0.7774,-7.12258 -10.10626,-18.20214 -27.20917,-27.69892c-16.3255,-8.70537 -36.53803,-29.28171 -46.64429,-47.48386l-17.10291,-30.86451l-8.55145,22.95053c-14.77069,40.36128 -6.99664,69.64299 23.32215,85.47094c31.8736,15.82795 73.07606,15.03655 76.18568,-2.37419zm261.20803,-39.56988c-6.21924,-34.82149 -21.76734,-47.48386 -59.86017,-47.48386c-59.08277,0 -83.18232,33.2387 -30.31879,43.52687c33.42841,6.33118 79.2953,32.4473 79.2953,45.90106c0,5.53978 3.10962,4.74839 7.77405,-2.37419c3.88702,-6.33118 5.44183,-24.53333 3.10962,-39.56988zm-486.65544,-28.49031c-10.10626,-30.07311 -11.66107,-30.86451 -47.4217,-33.2387c-39.64765,-2.37419 -79.2953,15.03655 -73.07606,32.4473c1.55481,5.53978 21.76734,11.87096 44.31208,15.03655c22.54474,2.37419 50.53132,11.87096 61.41498,20.57634c24.87696,18.99354 28.76398,9.49677 14.77069,-34.82149zm-472.66215,-54.60643c0,-55.39783 -3.10962,-91.01072 -7.77405,-91.01072c-4.66443,0 -7.77405,35.61289 -7.77405,91.01072c0,55.39783 3.10962,91.01072 7.77405,91.01072c4.66443,0 7.77405,-35.61289 7.77405,-91.01072zm223.11519,69.64299c-2.33221,-7.91398 -10.10626,-29.28171 -16.3255,-48.27525c-6.99664,-18.20214 -10.10626,-42.73547 -7.77405,-53.02364c2.33221,-11.07957 1.55481,-19.78494 -2.33221,-19.78494c-11.66107,0 -40.42505,23.74193 -48.97651,39.56988c-16.3255,31.6559 27.20917,94.96771 64.5246,94.96771c10.88367,0 13.99329,-3.95699 10.88367,-13.45376zm487.43285,-1.5828c2.33221,-3.95699 -0.7774,-20.57634 -7.77405,-37.19569c-8.55145,-20.57634 -10.88367,-40.36128 -6.99664,-64.10321l4.66443,-34.82149l-22.54474,11.87096c-11.66107,6.33118 -26.43177,17.41075 -31.8736,23.74193c-16.3255,19.78494 -3.88702,64.10321 23.32215,87.05374c25.65436,22.15913 34.20581,24.53333 41.20246,13.45376zm-438.45634,-53.81504c0,-23.74193 11.66107,-47.48386 37.31543,-75.18277l20.21253,-22.15913l-34.98322,0c-18.65772,0 -38.09284,3.16559 -43.53467,6.33118c-24.09955,15.82795 -29.54138,83.09675 -8.55145,110.00427c11.66107,14.24516 29.54138,3.16559 29.54138,-18.99354zm64.5246,4.74839c21.76734,-20.57634 46.64429,-30.86451 76.96308,-30.86451c24.09955,0 24.09955,0 9.32886,-16.61935c-7.77405,-9.49677 -24.09955,-21.36774 -34.98322,-27.69892c-18.65772,-9.49677 -23.32215,-8.70537 -46.64429,7.12258c-27.98657,18.99354 -43.53467,50.64945 -35.76062,72.01718c6.21924,16.61935 10.10626,15.82795 31.09619,-3.95699zm422.13084,3.16559c10.10626,-35.61289 31.09619,-67.2688 51.30872,-79.93116c26.43177,-15.82795 15.5481,-25.32472 -30.31879,-25.32472c-28.76398,0 -34.20581,3.16559 -45.08948,23.74193c-12.43848,24.53333 -14.77069,48.27525 -6.99664,77.55696c5.44183,20.57634 24.87696,22.95053 31.09619,3.95699zm76.96308,-2.37419c17.10291,-8.70537 43.53467,-15.82795 59.86017,-15.82795c35.76062,0 36.53803,-6.33118 6.99664,-34.82149c-18.65772,-18.20214 -27.20917,-21.36774 -46.64429,-16.61935c-26.43177,5.53978 -62.96979,45.10966 -62.96979,68.06019c0,18.99354 4.66443,18.99354 42.75727,-0.7914zm-619.59167,-118.70964c52.08613,-19.78494 98.73042,-19.78494 157.81319,0c33.42841,11.87096 62.19239,15.82795 97.95301,14.24516c47.4217,-2.37419 52.08613,-3.95699 70.74384,-27.69892l19.43512,-26.11612l-265.87246,0l-265.09506,0l0,27.69892l0,27.69892l72.29865,0c52.86353,0 82.40491,-3.95699 112.7237,-15.82795zm48.1991,-79.13976c0,-3.95699 -12.43848,-7.91398 -27.20917,-7.91398c-14.77069,0 -27.20917,3.95699 -27.20917,7.91398c0,4.74839 12.43848,7.91398 27.20917,7.91398c14.77069,0 27.20917,-3.16559 27.20917,-7.91398zm388.70243,-0.7914c0,-3.95699 -63.7472,-7.12258 -155.48097,-7.12258c-100.28523,0 -155.48097,3.16559 -155.48097,7.91398c0,5.53978 55.19574,7.91398 155.48097,7.91398c90.95637,-0.7914 155.48097,-3.95699 155.48097,-8.70537z"/>
  </g>
 </g>
</svg>